<svg width="41" height="40" viewBox="0 0 41 40" fill="none" xmlns="http://www.w3.org/2000/svg">
<rect x="0.785645" y="0.5" width="39" height="39" rx="19.5" fill="white"/>
<rect x="0.785645" y="0.5" width="39" height="39" rx="19.5" stroke="#333333"/>
<path d="M24.4522 21.5477L24.9284 18.5715H22.0713V16.4882C22.0713 15.6549 22.3689 15.0001 23.6784 15.0001H25.0475V12.262C24.2737 12.143 23.4403 12.0239 22.6665 12.0239C20.2261 12.0239 18.4999 13.512 18.4999 16.1906V18.5715H15.8213V21.5477H18.4999V29.1073C19.0951 29.2263 19.6903 29.2858 20.2856 29.2858C20.8808 29.2858 21.4761 29.2263 22.0713 29.1073V21.5477H24.4522Z" fill="#376BA4"/>
<path d="M24.4522 21.5477L24.9284 18.5715H22.0713V16.4882C22.0713 15.6549 22.3689 15.0001 23.6784 15.0001H25.0475V12.262C24.2737 12.143 23.4403 12.0239 22.6665 12.0239C20.2261 12.0239 18.4999 13.512 18.4999 16.1906V18.5715H15.8213V21.5477H18.4999V29.1073C19.0951 29.2263 19.6903 29.2858 20.2856 29.2858C20.8808 29.2858 21.4761 29.2263 22.0713 29.1073V21.5477H24.4522Z" fill="#333333"/>
</svg>
