<svg width="41" height="40" viewBox="0 0 41 40" fill="none" xmlns="http://www.w3.org/2000/svg">
<rect x="0.928467" y="0.5" width="39" height="39" rx="19.5" fill="white"/>
<rect x="0.928467" y="0.5" width="39" height="39" rx="19.5" stroke="#333333"/>
<path d="M20.429 9.61035C17.6074 9.61035 17.2533 9.62269 16.1451 9.67312C15.0391 9.72377 14.2841 9.89888 13.6236 10.1558C12.9402 10.4212 12.3606 10.7762 11.7831 11.3539C11.2052 11.9313 10.8503 12.511 10.584 13.1941C10.3265 13.8549 10.1512 14.6101 10.1014 15.7158C10.0518 16.824 10.0388 17.1783 10.0388 20C10.0388 22.8216 10.0514 23.1746 10.1016 24.2829C10.1525 25.3889 10.3276 26.1439 10.5843 26.8045C10.8498 27.4878 11.2048 28.0675 11.7825 28.645C12.3597 29.2229 12.9394 29.5787 13.6223 29.8441C14.2833 30.101 15.0385 30.2761 16.1443 30.3268C17.2525 30.3772 17.6063 30.3896 20.4277 30.3896C23.2495 30.3896 23.6025 30.3772 24.7107 30.3268C25.8167 30.2761 26.5725 30.101 27.2335 29.8441C27.9166 29.5787 28.4954 29.2229 29.0727 28.645C29.6506 28.0675 30.0055 27.4878 30.2718 26.8047C30.5272 26.1439 30.7025 25.3887 30.7544 24.2831C30.8042 23.1749 30.8172 22.8216 30.8172 20C30.8172 17.1783 30.8042 16.8242 30.7544 15.716C30.7025 14.6099 30.5272 13.8549 30.2718 13.1943C30.0055 12.511 29.6506 11.9313 29.0727 11.3539C28.4948 10.7759 27.9168 10.421 27.2329 10.1558C26.5706 9.89888 25.8152 9.72377 24.7092 9.67312C23.601 9.62269 23.2482 9.61035 20.4257 9.61035H20.429ZM19.497 11.4826C19.7736 11.4822 20.0822 11.4826 20.429 11.4826C23.2029 11.4826 23.5317 11.4926 24.6271 11.5424C25.6401 11.5887 26.1898 11.758 26.5561 11.9002C27.0409 12.0885 27.3866 12.3136 27.75 12.6772C28.1136 13.0409 28.3387 13.3872 28.5274 13.872C28.6696 14.2378 28.8391 14.7876 28.8852 15.8006C28.935 16.8958 28.9458 17.2249 28.9458 19.9976C28.9458 22.7703 28.935 23.0993 28.8852 24.1945C28.8389 25.2075 28.6696 25.7573 28.5274 26.1231C28.3391 26.608 28.1136 26.9532 27.75 27.3166C27.3863 27.6803 27.0411 27.9054 26.5561 28.0937C26.1903 28.2365 25.6401 28.4054 24.6271 28.4517C23.5319 28.5015 23.2029 28.5123 20.429 28.5123C17.6548 28.5123 17.326 28.5015 16.2308 28.4517C15.2179 28.4049 14.6681 28.2357 14.3017 28.0935C13.8168 27.9052 13.4705 27.68 13.1069 27.3164C12.7433 26.9528 12.5182 26.6073 12.3294 26.1223C12.1872 25.7565 12.0178 25.2067 11.9717 24.1937C11.9219 23.0984 11.9119 22.7694 11.9119 19.995C11.9119 17.2205 11.9219 16.8933 11.9717 15.798C12.018 14.785 12.1872 14.2352 12.3294 13.869C12.5177 13.3842 12.7433 13.0378 13.1069 12.6742C13.4705 12.3106 13.8168 12.0855 14.3017 11.8967C14.6679 11.7539 15.2179 11.585 16.2308 11.5385C17.1893 11.4952 17.5607 11.4822 19.497 11.48V11.4826ZM25.9747 13.2078C25.2864 13.2078 24.728 13.7655 24.728 14.4541C24.728 15.1424 25.2864 15.7008 25.9747 15.7008C26.663 15.7008 27.2214 15.1424 27.2214 14.4541C27.2214 13.7658 26.663 13.2073 25.9747 13.2073V13.2078ZM20.429 14.6645C17.4825 14.6645 15.0936 17.0534 15.0936 20C15.0936 22.9465 17.4825 25.3344 20.429 25.3344C23.3754 25.3344 25.7635 22.9465 25.7635 20C25.7635 17.0534 23.3752 14.6645 20.4288 14.6645H20.429ZM20.429 16.5368C22.3415 16.5368 23.8921 18.0872 23.8921 20C23.8921 21.9125 22.3415 23.4632 20.429 23.4632C18.5163 23.4632 16.9659 21.9125 16.9659 20C16.9659 18.0872 18.5163 16.5368 20.429 16.5368Z" fill="#333333"/>
</svg>
