<svg width="41" height="40" viewBox="0 0 41 40" fill="none" xmlns="http://www.w3.org/2000/svg">
<rect x="1.35718" y="0.5" width="39" height="39" rx="19.5" fill="white"/>
<rect x="1.35718" y="0.5" width="39" height="39" rx="19.5" stroke="#333333"/>
<path d="M18.4641 26.2608C20.0534 26.2608 21.3418 25.123 21.3418 23.3831V10.4763H24.7929C24.5993 12.8302 26.9393 15.1039 29.5198 15.0519V18.2971C27.3129 18.2971 25.4363 17.3639 24.7831 16.8461V23.3831C24.7831 26.2608 22.5193 29.5239 18.4641 29.5239C14.409 29.5239 12.1946 26.2608 12.1946 23.3831C12.1946 19.3216 16.4927 16.966 19.3395 17.5418V20.8472C19.1963 20.7965 18.8269 20.7216 18.5124 20.7216C16.9099 20.6626 15.5865 21.9623 15.5865 23.3831C15.5865 24.9724 16.8749 26.2608 18.4641 26.2608Z" fill="#333333"/>
</svg>
