<svg width="40" height="40" viewBox="0 0 40 40" fill="none" xmlns="http://www.w3.org/2000/svg">
<rect x="0.5" y="0.5" width="39" height="39" rx="19.5" fill="white"/>
<rect x="0.5" y="0.5" width="39" height="39" rx="19.5" stroke="#333333"/>
<path d="M31.4678 14.0698C31.1898 13.0372 30.3756 12.223 29.343 11.945C27.4566 11.4287 19.9107 11.4287 19.9107 11.4287C19.9107 11.4287 12.3648 11.4287 10.4784 11.9251C9.46564 12.2032 8.63162 13.0372 8.35362 14.0698C7.85718 15.9562 7.85718 19.8682 7.85718 19.8682C7.85718 19.8682 7.85718 23.8 8.35362 25.6666C8.63162 26.6992 9.44578 27.5133 10.4784 27.7913C12.3847 28.3076 19.9107 28.3076 19.9107 28.3076C19.9107 28.3076 27.4566 28.3076 29.343 27.8112C30.3756 27.5332 31.1898 26.719 31.4678 25.6864C31.9642 23.8 31.9642 19.888 31.9642 19.888C31.9642 19.888 31.9841 15.9562 31.4678 14.0698Z" fill="#333333"/>
<path d="M17.5972 23.2103L23.8721 19.5962L17.5972 15.9822V23.2103Z" fill="#333333"/>
<path d="M17.5972 23.2103L23.8721 19.5962L17.5972 15.9822V23.2103Z" fill="white"/>
</svg>
