<svg width="16" height="16" viewBox="0 0 16 16" fill="none" xmlns="http://www.w3.org/2000/svg">
<path d="M15.6451 0.367067C15.4183 0.139835 15.1105 0.012135 14.7895 0.012135C14.4685 0.012135 14.1607 0.139835 13.934 0.367067L8 6.28895L2.06598 0.354932C1.83926 0.1277 1.53146 0 1.21047 0C0.889474 0 0.581669 0.1277 0.354949 0.354932C-0.118316 0.828197 -0.118316 1.5927 0.354949 2.06597L6.28896 7.99999L0.354949 13.934C-0.118316 14.4073 -0.118316 15.1718 0.354949 15.6451C0.828214 16.1183 1.59272 16.1183 2.06598 15.6451L8 9.71103L13.934 15.6451C14.4073 16.1183 15.1718 16.1183 15.6451 15.6451C16.1183 15.1718 16.1183 14.4073 15.6451 13.934L9.71103 7.99999L15.6451 2.06597C16.1062 1.60484 16.1062 0.828197 15.6451 0.367067Z" fill="#333333"/>
</svg>
